<svg preserveAspectRatio="none" overflow="visible" style="display: block;" width="42" height="42" viewBox="0 0 42 42" fill="none" xmlns="http://www.w3.org/2000/svg">
<g id="Group 5">
<g id="Voice Pulse / Ring" filter="url(#filter0_d_0_14)">
<circle cx="21" cy="21" r="14" fill="#051F38" fill-opacity="0.72"/>
<circle cx="21" cy="21" r="13.5" stroke="url(#paint0_linear_0_14)"/>
</g>
<g id="Voice Microphone" filter="url(#filter1_d_0_14)">
<path id="Vector" d="M24 15.5C24 13.8431 22.6569 12.5 21 12.5C19.3431 12.5 18 13.8431 18 15.5V19.5C18 21.1569 19.3431 22.5 21 22.5C22.6569 22.5 24 21.1569 24 19.5V15.5Z" stroke="#8FEAFF" stroke-width="1.6"/>
<path id="Vector_2" d="M15.5 19.7V20.5C15.5 23.5 17.9 25.5 21 25.5C24.1 25.5 26.5 23.5 26.5 20.5V19.7" stroke="#55CFFF" stroke-width="1.6" stroke-linecap="round"/>
<path id="Vector_3" d="M21 25.5V28M18.5 28H23.5" stroke="#55CFFF" stroke-width="1.6" stroke-linecap="round"/>
</g>
</g>
<defs>
<filter id="filter0_d_0_14" x="0" y="0" width="42" height="42" filterUnits="userSpaceOnUse" color-interpolation-filters="sRGB">
<feFlood flood-opacity="0" result="BackgroundImageFix"/>
<feColorMatrix in="SourceAlpha" type="matrix" values="0 0 0 0 0 0 0 0 0 0 0 0 0 0 0 0 0 0 127 0" result="hardAlpha"/>
<feOffset/>
<feGaussianBlur stdDeviation="3.5"/>
<feColorMatrix type="matrix" values="0 0 0 0 0 0 0 0 0 0.75 0 0 0 0 1 0 0 0 0.42 0"/>
<feBlend mode="screen" in2="BackgroundImageFix" result="effect1_dropShadow_0_14"/>
<feBlend mode="normal" in="SourceGraphic" in2="effect1_dropShadow_0_14" result="shape"/>
</filter>
<filter id="filter1_d_0_14" x="7" y="6" width="28" height="28" filterUnits="userSpaceOnUse" color-interpolation-filters="sRGB">
<feFlood flood-opacity="0" result="BackgroundImageFix"/>
<feColorMatrix in="SourceAlpha" type="matrix" values="0 0 0 0 0 0 0 0 0 0 0 0 0 0 0 0 0 0 127 0" result="hardAlpha"/>
<feOffset/>
<feGaussianBlur stdDeviation="2.5"/>
<feColorMatrix type="matrix" values="0 0 0 0 0 0 0 0 0 0.76 0 0 0 0 1 0 0 0 0.55 0"/>
<feBlend mode="screen" in2="BackgroundImageFix" result="effect1_dropShadow_0_14"/>
<feBlend mode="normal" in="SourceGraphic" in2="effect1_dropShadow_0_14" result="shape"/>
</filter>
<linearGradient id="paint0_linear_0_14" x1="7" y1="21" x2="35" y2="21" gradientUnits="userSpaceOnUse">
<stop stop-color="#4DF0FF" stop-opacity="0.9"/>
<stop offset="1" stop-color="#387AFF" stop-opacity="0.42"/>
</linearGradient>
</defs>
</svg>
